<svg width="32" height="33" viewBox="0 0 32 33" fill="none" xmlns="http://www.w3.org/2000/svg">
<path fill-rule="evenodd" clip-rule="evenodd" d="M15.9906 26.8949C10.2543 26.8949 5.58643 22.227 5.58643 16.4906C5.58643 10.7543 10.2543 6.08643 15.9906 6.08643C21.727 6.08643 26.3949 10.7543 26.3949 16.4906C26.3949 22.227 21.727 26.8949 15.9906 26.8949Z" fill="#FFC107"/>
<path fill-rule="evenodd" clip-rule="evenodd" d="M15.9906 4.51172C15.7282 4.51172 15.5032 4.30551 15.5032 4.02431V0.987405C15.5032 0.724956 15.7282 0.5 15.9906 0.5C16.2718 0.5 16.478 0.724956 16.478 0.987405V4.02431C16.478 4.30551 16.2718 4.51172 15.9906 4.51172ZM22.2332 6.18014C22.1394 6.18014 22.0644 6.16139 21.9895 6.1239C21.7458 5.99268 21.6708 5.69274 21.802 5.46778L23.3392 2.82455C23.4704 2.58084 23.7704 2.50586 23.9953 2.63708C24.2203 2.76831 24.314 3.06825 24.164 3.31195L22.6456 5.93644C22.5518 6.10516 22.4019 6.18014 22.2332 6.18014ZM26.7885 10.7542C26.6198 10.7542 26.4511 10.6605 26.3761 10.5105C26.2449 10.2668 26.3199 9.98565 26.5448 9.83568L29.188 8.31722C29.413 8.186 29.7129 8.26098 29.8442 8.50469C29.9754 8.72964 29.9004 9.02958 29.6755 9.16081L27.0322 10.6793C26.9572 10.7355 26.8822 10.7542 26.7885 10.7542ZM31.5126 16.978H28.4569C28.1945 16.978 27.9695 16.7718 27.9695 16.4906C27.9695 16.2282 28.1945 16.0032 28.4569 16.0032H31.5126C31.775 16.0032 32 16.2282 32 16.4906C32 16.7718 31.775 16.978 31.5126 16.978ZM29.4318 24.739C29.338 24.739 29.263 24.7203 29.188 24.664L26.5448 23.1456C26.3199 23.0144 26.2449 22.7144 26.3761 22.4895C26.5073 22.2458 26.8073 22.1708 27.0322 22.302L29.6755 23.8392C29.9004 23.9704 29.9754 24.2704 29.8442 24.4953C29.7692 24.6453 29.6005 24.739 29.4318 24.739ZM23.7516 30.4192C23.5829 30.4192 23.4142 30.3254 23.3392 30.1755L21.802 27.5322C21.6708 27.3073 21.7458 27.0073 21.9895 26.8761C22.2144 26.7449 22.5144 26.8199 22.6456 27.0448L24.164 29.688C24.314 29.913 24.2203 30.2129 23.9953 30.3442C23.9203 30.4004 23.8266 30.4192 23.7516 30.4192ZM15.9906 32.5C15.7282 32.5 15.5032 32.275 15.5032 32.0126V28.9569C15.5032 28.6945 15.7282 28.4695 15.9906 28.4695C16.2718 28.4695 16.478 28.6945 16.478 28.9569V32.0126C16.478 32.275 16.2718 32.5 15.9906 32.5ZM8.24839 30.4192C8.15466 30.4192 8.07967 30.4004 8.00469 30.3442C7.76098 30.2129 7.686 29.913 7.81722 29.688L9.33568 27.0448C9.48565 26.8199 9.76684 26.7261 10.0105 26.8761C10.2355 27.0073 10.3105 27.3073 10.1793 27.5322L8.66081 30.1755C8.56708 30.3254 8.41711 30.4192 8.24839 30.4192ZM2.56825 24.739C2.39953 24.739 2.23081 24.6453 2.13708 24.4953C2.00586 24.2704 2.08084 23.9704 2.32455 23.8392L4.96778 22.302C5.19274 22.1708 5.49268 22.2458 5.6239 22.4895C5.75513 22.7144 5.68014 23.0144 5.45518 23.1456L2.81195 24.664C2.73697 24.7203 2.64323 24.739 2.56825 24.739ZM3.52431 16.978H0.487405C0.224956 16.978 0 16.7718 0 16.4906C0 16.2282 0.224956 16.0032 0.487405 16.0032H3.52431C3.80551 16.0032 4.01172 16.2282 4.01172 16.4906C4.01172 16.7718 3.80551 16.978 3.52431 16.978ZM5.21148 10.7542C5.11775 10.7542 5.04277 10.7355 4.96778 10.6793L2.32455 9.16081C2.08084 9.02958 2.00586 8.72964 2.13708 8.50469C2.26831 8.26098 2.56825 8.186 2.81195 8.31722L5.45518 9.83568C5.68014 9.98565 5.75513 10.2668 5.6239 10.5105C5.53017 10.6605 5.36145 10.7542 5.21148 10.7542ZM9.76684 6.18014C9.59813 6.18014 9.42941 6.10516 9.33568 5.95518L7.81722 3.31195C7.686 3.06825 7.76098 2.76831 8.00469 2.63708C8.22964 2.50586 8.52958 2.58084 8.66081 2.82455L10.1793 5.46778C10.3105 5.69274 10.2355 5.99268 10.0105 6.1239C9.93556 6.16139 9.84183 6.18014 9.76684 6.18014Z" fill="#FF9D05"/>
<path fill-rule="evenodd" clip-rule="evenodd" d="M19.515 22.3957C19.4587 22.3957 19.4025 22.3957 19.3462 22.3582L15.9907 21.0647L12.6538 22.3582C12.5038 22.4332 12.3164 22.3957 12.1851 22.302C12.0539 22.2082 11.9789 22.0583 11.9977 21.8895L12.2039 18.309L9.91684 15.5345C9.82311 15.4033 9.78561 15.2346 9.84185 15.0659C9.89809 14.9159 10.0106 14.7847 10.1793 14.7472L13.6474 13.8474L15.597 10.8105C15.672 10.6792 15.8407 10.6042 15.9907 10.6042C16.1594 10.6042 16.3093 10.6792 16.4031 10.8105L18.3527 13.8474L21.8208 14.7472C21.9707 14.7847 22.102 14.9159 22.1582 15.0659C22.2144 15.2346 22.1769 15.4033 22.0645 15.5345L19.7962 18.309L20.0024 21.8895C20.0024 22.0583 19.9274 22.2082 19.7962 22.302C19.7212 22.3769 19.6087 22.3957 19.515 22.3957Z" fill="white"/>
</svg>
