<svg width="18" height="20" viewBox="0 0 18 20" fill="none" xmlns="http://www.w3.org/2000/svg">
<path d="M16.9306 11.75V11.75C17.0209 12.022 17.0661 12.1581 17.0943 12.272C17.4811 13.8365 16.5628 15.427 15.0145 15.8743C14.9018 15.9068 14.7614 15.9357 14.4806 15.9935L13.9092 16.1111C13.6531 16.1638 13.5251 16.1902 13.4026 16.2265C12.949 16.3609 12.5335 16.6008 12.1903 16.9265C12.0976 17.0144 12.0108 17.1121 11.8371 17.3075V17.3075C11.2907 17.9222 11.0176 18.2295 10.7429 18.4257C9.69992 19.1704 8.29911 19.1704 7.25618 18.4257C6.98146 18.2295 6.7083 17.9222 6.16197 17.3075V17.3075C5.98828 17.1121 5.90144 17.0144 5.80877 16.9265C5.4655 16.6008 5.05007 16.3609 4.5964 16.2265C4.47393 16.1902 4.34589 16.1638 4.08981 16.1111V16.1111C3.28433 15.9453 2.88159 15.8624 2.57435 15.7226C1.40794 15.1918 0.707536 13.9786 0.831008 12.7031C0.863531 12.3671 0.993109 11.9768 1.25226 11.1964V11.1964C1.33465 10.9482 1.37585 10.8242 1.40565 10.7C1.51605 10.2399 1.51605 9.76015 1.40565 9.30004C1.37585 9.17583 1.33465 9.05177 1.25226 8.80364V8.80364C0.993109 8.02317 0.863531 7.63294 0.831008 7.29695C0.707536 6.02139 1.40794 4.80824 2.57435 4.27739C2.88159 4.13756 3.28433 4.05466 4.08981 3.88886V3.88886C4.34589 3.83615 4.47393 3.8098 4.5964 3.7735C5.05007 3.63906 5.4655 3.39921 5.80877 3.07354C5.90144 2.98563 5.98828 2.88792 6.16197 2.6925V2.6925C6.7083 2.07783 6.98146 1.7705 7.25618 1.57434C8.29911 0.829627 9.69992 0.829627 10.7429 1.57434C11.0176 1.7705 11.2907 2.07783 11.8371 2.6925V2.6925C12.0108 2.88792 12.0976 2.98563 12.1903 3.07354C12.5335 3.39921 12.949 3.63906 13.4026 3.7735C13.5251 3.8098 13.6531 3.83615 13.9092 3.88886L14.7386 4.05958C14.7828 4.06868 14.8049 4.07323 14.8229 4.07717C16.549 4.45466 17.5767 6.23462 17.0405 7.91818C17.0349 7.93577 17.0278 7.95718 17.0136 8V8L16.9566 8.17174M11.4995 10C11.4995 11.3807 10.3802 12.5 8.99952 12.5C7.6188 12.5 6.49952 11.3807 6.49952 10C6.49952 8.61929 7.6188 7.5 8.99952 7.5C10.3802 7.5 11.4995 8.61929 11.4995 10Z" stroke="#BBB8B5" stroke-width="1.5" stroke-linecap="round"/>
</svg>
