<svg width="20" height="24" viewBox="0 0 20 24" fill="none" xmlns="http://www.w3.org/2000/svg">
<path d="M19.5029 19.7912L18.4313 6.28609C18.3648 5.41595 17.6286 4.73462 16.7561 4.73462H14.6391V7.87135C14.6391 8.25981 14.3246 8.57424 13.9362 8.57424C13.5482 8.57424 13.2333 8.25981 13.2333 7.87135V4.73462H6.76682V7.87135C6.76682 8.25981 6.45191 8.57424 6.06393 8.57424C5.67547 8.57424 5.36104 8.25981 5.36104 7.87135V4.73462H3.24397C2.37149 4.73462 1.63532 5.41595 1.5688 6.28421L0.496678 19.7931C0.413756 20.875 0.789084 21.9519 1.52615 22.7475C2.26326 23.5431 3.30819 24 4.39298 24H15.6072C16.6919 24 17.7369 23.5431 18.474 22.7475C19.2111 21.9518 19.5864 20.875 19.5029 19.7912ZM13.1668 12.9137L9.53146 16.549C9.39416 16.6863 9.21421 16.7552 9.0343 16.7552C8.85435 16.7552 8.67444 16.6863 8.53715 16.549L6.83338 14.8453C6.55879 14.5707 6.55879 14.126 6.83338 13.8514C7.10797 13.5768 7.55315 13.5768 7.82727 13.8514L9.03435 15.058L12.1729 11.9194C12.447 11.6453 12.8922 11.6453 13.1668 11.9194C13.4413 12.194 13.4413 12.6392 13.1668 12.9137Z" fill="#DF1C26"/>
<path d="M10.0003 0C7.4423 0 5.36133 2.08144 5.36133 4.63945V4.73456H6.76711V4.63945C6.76711 2.85647 8.21737 1.40573 10.0004 1.40573C11.7833 1.40573 13.2336 2.85647 13.2336 4.63945V4.73456H14.6393V4.63945C14.6393 2.08144 12.5583 0 10.0003 0Z" fill="#DF1C26"/>
</svg>
